<?xml version="1.0" encoding="UTF-8" standalone="no"?>
<svg width="816" height="1056" viewport-fill="#FFFFFF" style="background-color: #FFFFFF; stroke-width: 0px;" xmlns="http://www.w3.org/2000/svg">
<path d="M-64.98133 622.77094C-43.91057 615.66455 -20.176172 606.18945 -1.7690353 601.4517 16.638102 596.714 32.406826 595.23584 45.461494 594.3444 58.516163 593.453 68.42176 595.5838 76.55898 596.1032 84.696205 596.6226 88.36992 597.17035 94.28484 597.4609 100.19977 597.7514 105.653076 597.3185 112.048515 597.8464 118.443954 598.37427 123.27239 599.36487 132.6575 600.6281 142.0426 601.89136 158.48477 604.21466 168.35916 605.42596 178.23355 606.63727 183.57664 607.2087 191.90387 607.89594 200.2311 608.5832 207.94577 609.64386 218.32251 609.5496 228.69925 609.4554 244.3834 608.4339 254.16434 607.3305 263.94525 606.2271 269.44485 604.9407 277.0081 602.92926 284.57132 600.91785 292.82648 598.11194 299.5438 595.26215 306.2611 592.41235 311.4073 589.231 317.31207 585.8306 323.21686 582.43024 329.2869 578.1895 334.97247 574.8597 340.65805 571.52985 344.88315 568.6507 351.42554 565.8515 357.96793 563.0523 367.37488 560.29785 374.22687 558.0645 381.07886 555.8312 384.97513 554.39667 392.53745 552.45135 400.09976 550.50604 411.65662 547.611 419.60077 546.39264 427.54492 545.17426 431.8701 545.27094 440.2024 545.14105 448.5347 545.01117 460.56976 544.7717 469.59454 545.61334 478.61932 546.45496 487.10272 548.5152 494.35114 550.19073 501.59955 551.8663 505.86295 553.25507 513.0851 555.66644 520.30725 558.0778 527.5454 560.8368 537.684 564.659 547.82263 568.4812 562.3599 573.46655 573.91693 578.5997 585.47394 583.7328 596.9517 590.4333 607.02594 595.4577 617.10016 600.4821 626.17865 604.6792 634.3623 608.7463 642.54596 612.81335 648.744 616.14343 656.12787 619.86005 663.5117 623.57666 671.20667 628.0683 678.6654 631.04584 686.12415 634.0234 693.05664 635.3316 700.8801 637.7253 708.7036 640.11896 715.6489 642.70984 725.6063 645.408 735.5637 648.1062 750.9497 651.58826 760.6246 653.9145 770.29944 656.2407 777.2147 657.9383 783.6555 659.3654 790.0963 660.79254 793.5439 660.96924 799.2693 662.47723 804.9947 663.9852 813.754 666.83826 818.0079 668.41327 822.2617 669.9883 822.77606 670.36926 824.79236 671.9272 826.80865 673.4851 828.63574 675.6267 830.1058 677.7608 831.5758 679.8949 832.01917 680.6592 833.6124 684.7316 835.2057 688.8041 838.0003 696.2811 839.6655 702.1956 841.33075 708.1101 842.60077 713.7993 843.60376 720.21844 844.60675 726.6376 844.9248 732.706 845.6836 740.71027 846.4424 748.71454 847.55066 759.0736 848.1563 768.24396 848.76196 777.4143 848.8324 785.5145 849.3175 795.7325 849.8026 805.95044 850.7161 819.3768 851.0671 829.5517 851.418 839.7266 851.12103 846.74384 851.4231 856.7819 851.72516 866.82 852.6277 879.9424 852.87946 889.78033 853.1312 899.6183 852.84607 906.18115 852.93384 915.80975 853.0216 925.43835 853.2015 935.9273 853.40607 947.55194 853.61066 959.1766 854.0355 968.2554 854.16144 985.55756 854.28735 1002.85974 854.19293 1037.6255 854.16144 1051.3652 854.12994 1065.105 854.2297 1062.6929 853.97235 1067.9963 853.715 1073.2998 853.6826 1077.0404 852.6175 1083.1858 851.55237 1089.3312 849.7765 1098.8668 847.5817 1104.8684 845.38696 1110.87 844.76465 1112.2046 839.4488 1119.1956 834.13293 1126.1865 827.94714 1138.7977 815.6864 1146.8141 803.42566 1154.8304 784.99915 1161.4287 765.88446 1167.294 746.7698 1173.1592 721.2264 1177.2577 700.99817 1182.0057 680.76996 1186.7538 670.51404 1190.7294 644.5151 1195.7822 618.5161 1200.8351 573.40955 1208.4421 545.0044 1212.3229 516.59924 1216.2036 497.75772 1216.6611 474.08435 1219.0669 450.41098 1221.4727 425.77655 1224.2534 402.96417 1226.7571 380.1518 1229.2607 359.9649 1232.0038 337.21 1234.0885 314.45508 1236.1732 287.4333 1237.8495 266.43475 1239.2654 245.43623 1240.6813 228.65082 1242.1658 211.21887 1242.5839 193.78693 1243.002 177.77716 1242.9338 161.84305 1241.774 145.90894 1240.6143 129.47661 1238.2593 115.61416 1235.6251 101.7517 1232.991 86.241394 1228.729 78.66831 1225.9694 71.09523 1223.2097 75.016266 1222.9156 70.17568 1219.0669 65.3351 1215.2181 56.203625 1208.1036 49.624794 1202.8766 43.045963 1197.6495 38.192623 1194.6554 30.702705 1187.7047 23.212786 1180.754 11.248432 1168.8456 4.68528 1161.1726 -1.8778725 1153.4996 -5.042465 1148.1719 -8.6762085 1141.6666 -12.309952 1135.1614 -13.773194 1131.4236 -17.11718 1122.1414 -20.461164 1112.8591 -26.101854 1095.8611 -28.74012 1085.973 -31.378386 1076.085 -31.801569 1075.3307 -32.94677 1062.813 -34.09197 1050.2953 -35.088524 1030.5303 -35.61132 1010.86664 -36.134117 991.203 -36.1149 964.4909 -36.08354 944.8311 -36.052185 925.1713 -35.533234 909.39325 -35.423172 892.9079 -35.31311 876.42255 -35.13987 863.6246 -35.423172 845.919 -35.706474 828.21344 -36.792492 806.8732 -37.122986 786.6745 -37.45348 766.47577 -37.084095 740.4728 -37.406136 724.7266 -37.728176 708.98047 -37.75677 704.29517 -39.05523 692.1977 -40.353687 680.1002 -44.21262 661.3447 -45.196877 652.1419 -46.181133 642.9391 -44.66963 640.4909 -44.96077 636.9809 -45.25191 633.4709 -46.943733 631.08185 -46.943733 631.08185" fill="#87BCCF" stroke="#000000" fill-opacity="1,000000" stroke-opacity="1,000000" stroke-width="5" stroke-linecap="round" />
<path d="M365.4566 457.31146C365.3622 477.82977 364.71707 498.08954 365.17346 518.8664 365.62985 539.64325 367.22928 564.9617 368.19495 581.9726 369.1606 598.9835 369.27142 604.16516 370.9674 620.9318 372.6634 637.6985 376.8828 666.20636 378.3708 682.5726 379.85876 698.9388 379.68246 703.3067 379.89536 719.1292 380.10825 734.9517 379.5993 762.0848 379.6482 777.5076 379.69708 792.9305 380.27167 800.5159 380.18866 811.6663 380.10565 822.8167 378.81964 832.27405 379.15015 844.4101 379.48065 856.54614 381.3743 874.22394 382.17163 884.4826 382.96896 894.7413 383.53836 900.0084 383.93417 905.9622 384.33 911.916 384.41528 916.1032 384.54657 920.2055 384.67786 924.3078 384.4591 928.0234 384.7218 930.57587 384.9845 933.12836 385.35376 933.84033 386.1228 935.52045 386.89185 937.20056 387.3836 938.9277 389.33612 940.6567 391.28864 942.3857 393.9918 944.3562 397.83798 945.8945 401.68417 947.43274 403.93826 948.9489 412.4132 949.8863 420.88815 950.82367 438.69302 951.5753 448.68762 951.51874 458.68222 951.46216 465.5982 950.1889 472.38086 949.5468 479.1635 948.9047 485.10318 948.1888 489.3836 947.6663 493.66403 947.14386 495.8939 947.29706 498.06348 946.4119 500.23306 945.5268 501.6557 946.1145 502.40106 942.35565 503.14642 938.5968 502.9961 932.0949 502.5357 923.8587 502.07532 915.6225 500.60684 902.0888 499.63873 892.9383 498.67062 883.7878 497.61047 876.1371 496.72705 868.9555 495.84363 861.7739 495.3027 858.29486 494.33826 849.84894 493.3738 841.403 492.14865 830.09564 490.94043 818.2801 489.7322 806.46454 488.32846 789.5032 487.08887 778.9556 485.84927 768.4081 484.54852 763.3412 483.50293 754.99493 482.45734 746.6487 481.8173 738.1836 480.81537 728.878 479.81345 719.5724 478.25885 710.95935 477.49133 699.1612 476.72382 687.36304 476.86127 670.9135 476.21027 658.0889 475.55927 645.26434 474.02286 632.2465 473.5854 622.2138 473.14792 612.1811 473.71127 606.8824 473.5854 597.8925 473.4595 588.90265 472.9559 577.4359 472.83002 568.2745 472.70413 559.11304 472.90872 550.97906 472.83002 542.9239 472.7513 534.8687 472.75916 526.72003 472.3578 519.94354 471.95642 513.16705 471.00415 506.92694 470.42188 502.26483 469.8396 497.60272 469.1709 494.73782 468.86407 491.9709 468.55725 489.20395 468.75418 487.81763 468.58093 485.66327 468.40768 483.5089 468.24966 481.3774 467.82465 479.04474 467.39963 476.71207 466.53433 473.56082 466.03076 471.66718 465.5272 469.77353 465.07648 469.02567 464.80316 467.6828 464.52985 466.33994 464.46957 465.7088 464.39087 463.60992 464.31216 461.51105 464.3409 457.674 464.33093 455.08954 464.32095 452.50507 464.33093 448.1031 464.33093 448.1031 464.33093 448.1031 465.2926 448.11298 463.71667 448.24518 462.14075 448.37738 458.47583 448.28513 454.87543 448.8963 451.27502 449.50748 445.66168 451.08975 442.11432 451.9123 438.56696 452.73483 436.86795 453.19382 433.5913 453.8316 430.31467 454.4694 425.7509 455.09012 422.4544 455.73895 419.15793 456.3878 416.50845 457.06094 413.81238 457.72467 411.1163 458.3884 408.35812 459.3652 406.278 459.72137 404.1979 460.07755 404.0823 459.83826 401.33167 459.86163 398.58102 459.885 389.77423 459.86163 389.77423 459.86163 389.77423 459.86163 389.91534 461.1833 389.91534 461.1833" fill="#3D555D" stroke="#727272" fill-opacity="1,000000" stroke-opacity="1,000000" stroke-width="5" stroke-linecap="round" />
<path d="M180.17395 951.7078C181.02554 951.80225 179.61978 951.89667 182.72873 951.991 185.83768 952.0854 190.98785 952.4781 198.82764 952.2741 206.66742 952.0701 219.30168 951.06616 229.76743 950.767 240.23317 950.4679 245.40395 950.6536 261.62213 950.4793 277.84033 950.305 311.15076 949.84705 327.07657 949.7211 343.00238 949.5952 347.85315 949.6763 357.17706 949.72394 366.50098 949.7716 374.44482 949.99915 383.02014 950.00714 391.59546 950.01514 399.82263 950.1418 408.629 949.7719 417.43536 949.40204 426.44186 948.42596 435.85834 947.788 445.2748 947.1501 453.14072 946.85645 465.1278 945.9443 477.1149 945.0321 495.40594 943.0387 507.78088 942.315 520.1558 941.5913 527.3612 941.72095 539.3774 941.6021 551.39355 941.4833 572.0422 941.68085 579.8778 941.6021 587.71344 941.5234 583.6808 941.25574 586.3912 941.1298 589.10156 941.0039 592.7087 940.8939 596.13995 940.84674 599.5712 940.79956 603.8523 940.87823 606.97894 940.84674 610.1056 940.81525 612.63696 940.7364 614.8997 940.65765 617.1625 940.5789 615.984 940.42163 620.5553 940.37445 625.1266 940.3273 637.3973 940.6362 642.32733 940.37445 647.2574 940.1127 647.6222 939.1027 650.1356 938.8038 652.64905 938.5048 654.3157 938.6178 657.408 938.5806 660.50037 938.54346 666.7779 938.76373 668.6897 938.5806 670.6015 938.3975 668.8473 943.041 668.8788 937.4821 668.9103 931.9232 669.0834 912.1049 668.8788 905.2271 668.6742 898.3493 668.0571 897.99133 667.6512 896.2153 667.24524 894.4392 668.14233 894.84485 666.443 894.57074 664.74365 894.29663 660.5703 894.3057 657.4551 894.57074 654.33984 894.83575 652.8431 895.4091 647.75146 896.1608 642.65985 896.91254 632.1533 898.54315 626.9054 899.0809 621.6575 899.6186 619.50696 899.03864 616.2638 899.38715 613.0206 899.73566 611.0853 900.4034 607.44653 901.1718 603.80774 901.94025 598.11383 903.4173 594.4309 903.99774 590.748 904.5782 589.72327 904.14984 585.34894 904.65436 580.9746 905.1589 576.0024 905.76685 568.18475 907.0247 560.3671 908.2826 548.908 910.6769 538.44305 912.2016 527.9781 913.7263 516.5653 914.5133 505.3949 916.17316 494.22452 917.833 482.05878 920.65796 471.42072 922.1607 460.78265 923.66345 452.45633 923.8674 441.56647 925.18964 430.6766 926.5119 416.2076 928.9466 406.08157 930.0944 395.95554 931.24225 388.85132 931.3033 380.8103 932.0765 372.7693 932.8497 364.43378 934.0853 357.83557 934.7337 351.23737 935.3821 346.74866 935.5688 341.2211 935.96674 335.69354 936.3647 330.75134 936.81195 324.67026 937.1215 318.58917 937.4311 316.4459 937.70715 304.73456 937.8243 293.02322 937.9414 264.07074 937.65106 254.40231 937.8243 244.7339 937.9975 249.5436 938.65894 246.72409 938.8637 243.90459 939.0685 239.78494 938.74274 237.48532 939.0528 235.1857 939.36285 234.44122 940.3307 232.92633 940.72406 231.41144 941.11743 235.96828 941.2982 228.39597 941.413 220.82365 941.52783 194.33324 941.0902 187.49246 941.413 180.65169 941.73584 187.37486 941.04565 187.35135 943.3499 187.32784 945.6542 187.4774 951.6104 187.35135 955.23846 187.2253 958.8665 186.59506 965.1182 186.59506 965.1182" fill="#3D555D" stroke="#727272" fill-opacity="1,000000" stroke-opacity="1,000000" stroke-width="5" stroke-linecap="round" />
<path d="M566.2267 1122.4559C567.75836 1122.3185 566.7168 1122.9423 570.82166 1122.0436 574.9265 1121.1449 584.2392 1118.9409 590.856 1117.0641 597.47284 1115.1873 603.6885 1112.9844 610.52246 1110.7822 617.35645 1108.5801 625.814 1105.894 631.86005 1103.8511 637.90607 1101.8081 642.00574 1100.3333 646.7987 1098.5248 651.5917 1096.7163 654.9612 1095.805 660.6177 1093.0001 666.2742 1090.1952 676.03394 1085.0085 680.73785 1081.6953 685.4418 1078.3821 683.96313 1077.7754 688.84125 1073.1206 693.71936 1068.4658 703.5393 1060.408 710.0064 1053.767 716.4735 1047.126 722.19543 1040.5583 727.6437 1033.275 733.0919 1025.9917 738.3356 1017.971 742.6958 1010.06696 747.056 1002.1629 751.6531 992.0742 753.805 985.85077 755.9569 979.6273 754.9918 977.412 755.6072 972.7264 756.22253 968.0408 757.1411 962.59375 757.497 957.737 757.8529 952.88025 757.78064 950.62524 757.7424 943.586 757.7041 936.54675 757.55066 923.30884 757.26733 915.50165 756.984 907.69446 756.5676 902.52545 756.04254 896.74286 755.51746 890.96027 755.2352 887.5829 754.11676 880.8062 752.9983 874.02954 750.67126 862.1152 749.3318 856.0828 747.9923 850.0505 747.2481 847.6016 746.0797 844.6121 744.9113 841.6226 744.64374 841.6289 742.32135 838.1458 739.99896 834.6627 734.5109 826.8571 732.1455 823.71344 729.7801 820.56976 729.9716 821.422 728.12885 819.2836 726.2861 817.14526 723.7766 813.85736 721.08887 810.88324 718.4011 807.9091 714.3778 803.8774 712.00226 801.4388 709.6267 799.0002 708.7642 798.31976 706.8355 796.2518 704.9068 794.1838 702.164 790.9223 700.43005 789.03094 698.6961 787.1396 697.8702 786.36285 696.4318 784.9036 694.99347 783.4444 693.1207 781.876 691.8 780.27545 690.47925 778.6749 690.11743 777.1947 688.5074 775.3006 686.89734 773.4065 684.51886 771.06415 682.1398 768.9108 679.7607 766.7575 676.1518 763.79626 674.2328 762.3808 672.3138 760.96533 671.99554 761.0831 670.6256 760.41815 669.2557 759.7532 667.31165 759.06775 666.0132 758.3909 664.7147 757.7141 664.05634 756.9712 662.8349 756.35724 661.61346 755.7433 660.4232 755.70636 658.6845 754.7072 656.9458 753.70807 654.2757 751.6999 652.40265 750.36224 650.5296 749.0246 648.6822 747.5946 647.44617 746.68134 646.21014 745.76807 645.70715 745.2297 644.9864 744.88275 644.2656 744.5358 643.6124 744.64685 643.12146 744.5997 642.6305 744.5525 642.0405 744.5997 642.0405 744.5997 642.0405 744.5997 642.0851 743.84216 642.153 746.8907 642.22095 749.9392 641.96674 758.32306 642.4482 762.8909 642.9296 767.4588 644.0215 770.5905 645.0417 774.29803 646.0619 778.00555 647.3816 781.31445 648.5695 785.13605 649.75745 788.95764 651.2713 793.8549 652.1693 797.2275 653.0673 800.60004 653.32184 802.89417 653.95764 805.3715 654.59344 807.8489 655.2586 809.70734 655.984 812.0915 656.7094 814.47565 657.60895 816.83 658.31006 819.6766 659.01117 822.52313 659.54144 826.32294 660.1906 829.1707 660.8398 832.0185 661.5993 834.0896 662.20496 836.76324 662.8106 839.4369 663.23145 842.12415 663.8245 845.21246 664.4176 848.3008 665.4246 852.21924 665.76324 855.2933 666.10187 858.3673 665.7935 860.2075 665.8564 863.6568 665.91925 867.1061 666.0931 867.3063 666.14044 875.9891 666.1878 884.6719 666.30664 907.4615 666.14044 915.7535 665.97424 924.0455 665.784 921.71234 665.14343 925.74115 664.50287 929.76996 663.34064 935.6361 662.2972 939.9262 661.2537 944.2163 660.2217 947.16425 658.8828 951.4819 657.54395 955.7995 656.0066 960.968 654.26385 965.8321 652.5211 970.69617 650.0426 976.3793 648.4266 980.66644 646.81055 984.9536 645.7765 988.0772 644.5676 991.55524 643.35876 995.03326 642.75867 997.21295 641.1735 1001.5346 639.5884 1005.85626 637.27246 1012.35266 635.05676 1017.48505 632.84106 1022.61743 629.8256 1028.5483 627.8794 1032.3287 625.93317 1036.1091 624.96814 1037.0903 623.37946 1040.1675 621.7908 1043.2446 620.2952 1046.9895 618.3473 1050.7915 616.39935 1054.5935 613.6577 1059.6271 611.69196 1062.9799 609.7262 1066.3326 608.2182 1068.5221 606.5528 1070.9081 604.8874 1073.2941 603.3434 1074.9745 601.69965 1077.2959 600.0559 1079.6173 598.332 1082.4436 596.69055 1084.8368 595.04913 1087.23 593.44635 1089.5447 591.8512 1091.6554 590.25604 1093.7661 588.2261 1096.1145 587.11975 1097.501 586.0134 1098.8875 585.8152 1099.2426 585.2134 1099.9746 584.6116 1100.7067 583.8875 1101.2499 583.5089 1101.8931 583.1303 1102.5363 583.6832 1100.3225 582.9417 1103.8336 582.2002 1107.3447 579.0597 1122.9595 579.0597 1122.9595" fill="#3D555D" stroke="#727272" fill-opacity="1,000000" stroke-opacity="1,000000" stroke-width="5" stroke-linecap="round" />
<path d="M190.08969 851.6004C190.08969 852.179 189.29866 851.10443 190.08969 853.33624 190.88072 855.56805 193.32562 861.81866 194.8359 864.9914 196.34619 868.1641 197.82509 870.1935 199.15137 872.3726 200.47765 874.55176 201.36061 875.9168 202.79358 878.0661 204.22655 880.2154 206.10559 882.4364 207.74915 885.2684 209.3927 888.10034 211.164 891.74945 212.6549 895.0578 214.14581 898.36615 215.65501 900.8553 216.69461 905.11835 217.7342 909.3814 218.52617 915.12244 218.89249 920.63617 219.2588 926.1499 219.37393 932.42175 218.89249 938.2006 218.41104 943.9795 217.11812 950.27014 216.00381 955.3095 214.88951 960.3489 213.7028 964.5066 212.20667 968.4367 210.71053 972.3668 208.48822 976.0591 207.02698 978.8901 205.56573 981.72107 204.6726 982.99554 203.43918 985.4228 202.20575 987.85004 201.3082 990.4241 199.62637 993.4534 197.94455 996.4828 195.69902 1000.41406 193.3482 1003.5988 190.99739 1006.78357 188.19495 1009.7617 185.52148 1012.5618 182.84802 1015.36194 179.67204 1018.208 177.3074 1020.3996 174.94276 1022.5912 173.57144 1023.99615 171.33362 1025.7112 169.0958 1027.4263 165.97807 1029.253 163.88043 1030.6898 161.78279 1032.1266 160.03116 1033.3921 158.74777 1034.332 157.46439 1035.272 157.06042 1035.5594 156.18008 1036.3297 155.29974 1037.1 154.2437 1038.3403 153.46573 1038.9537 152.68776 1039.5671 151.51227 1040.0098 151.51227 1040.0098 151.51227 1040.0098 155.98085 1035.0538 158.47754 1030.9277 160.97423 1026.8016 163.69028 1020.37683 166.4924 1015.2531 169.29453 1010.1294 173.24478 1003.96655 175.29031 1000.18536 177.33585 996.4042 177.57782 995.57916 178.7656 992.5661 179.95337 989.55304 180.97174 985.99725 182.41699 982.1071 183.86224 978.217 186.02846 973.7924 187.43713 969.2253 188.84581 964.65814 190.30106 958.5403 190.86905 954.7044 191.43704 950.8685 191.00739 951.72174 190.84506 946.2099 190.68274 940.69806 190.6623 927.9532 189.89508 921.63324 189.12787 915.3133 187.69307 913.36127 186.24182 908.2901 184.79057 903.21893 182.42622 895.58026 181.18756 891.20624 179.9489 886.8322 179.52371 884.5384 178.80984 882.04584 178.09598 879.5533 177.52599 878.17365 176.90436 876.2509 176.28273 874.3282 175.68585 872.3648 175.08005 870.5096 174.47424 868.65436 173.71255 866.7181 173.26953 865.11957 172.8265 863.52106 172.93965 863.0652 172.42194 860.9185 171.90422 858.77185 170.47295 854.07666 170.16321 852.23956 169.85347 850.40247 170.56348 849.89594 170.56348 849.89594" fill="#3D555D" stroke="#727272" fill-opacity="1,000000" stroke-opacity="1,000000" stroke-width="5" stroke-linecap="round" />
<path d="M522.8128 540.9281C521.14935 541.06165 520.7631 541.24005 517.8225 541.32874 514.8819 541.4174 509.68933 540.91785 505.1692 541.4601 500.64905 542.0023 494.77277 542.7599 490.70175 544.58234 486.63074 546.4048 483.61813 549.72577 480.74304 552.39465 477.86795 555.06354 475.62805 557.5084 473.45117 560.5957 471.2743 563.683 468.2522 565.80554 467.6817 570.9184 467.1112 576.03125 468.84537 585.8464 470.02826 591.2728 471.21115 596.6993 472.8526 599.5299 474.77902 603.4772 476.70544 607.42444 478.10736 611.2213 481.5868 614.9566 485.06622 618.6919 491.18857 623.62756 495.65567 625.88904 500.12277 628.1505 503.78632 628.363 508.3894 628.5255 512.9925 628.68805 517.11285 629.5142 523.27423 626.86414 529.4356 624.21405 539.99005 617.0812 545.3577 612.62506 550.7254 608.16895 553.50195 604.7239 555.4802 600.1274 557.4585 595.5309 557.19244 589.1286 557.2272 585.04626 557.2619 580.9639 557.2257 579.1879 555.6885 575.63324 554.15125 572.07855 550.1622 567.24524 548.0036 563.718 545.84503 560.1908 545.48755 556.86017 542.73706 554.4701 539.9866 552.08 534.6365 550.276 531.5005 549.37756 528.3645 548.4791 525.72546 548.9513 523.92126 549.0795 522.11707 549.20776 520.6754 550.147 520.6754 550.147" fill="#4ED5CA" stroke="#40726C" fill-opacity="1,000000" stroke-opacity="1,000000" stroke-width="5" stroke-linecap="round" />
<path d="M510.63715 670.6834C509.9465 670.4499 509.56433 670.10693 508.5652 669.9829 507.56604 669.8589 506.28394 669.94653 504.64233 669.9393 503.00073 669.932 500.59732 669.8529 498.7155 669.9393 496.8337 670.02563 495.2254 669.9644 493.3515 670.4576 491.4776 670.95074 489.09143 671.88403 487.47214 672.8982 485.85284 673.91235 484.6961 675.15845 483.63568 676.54266 482.57526 677.9269 481.94012 679.68005 481.10956 681.2036 480.279 682.7272 479.31952 684.0957 478.65225 685.6841 477.985 687.27246 477.29297 688.6529 477.10587 690.7338 476.91876 692.81476 476.59103 694.1497 477.52966 698.1698 478.4683 702.1899 481.15237 710.96326 482.7376 714.8542 484.32285 718.7451 485.08636 719.40576 487.04108 721.51526 488.9958 723.62476 491.83966 726.2766 494.46594 727.51135 497.09222 728.7461 499.98584 729.18335 502.7987 728.9239 505.61157 728.6644 508.43396 727.2079 511.3432 725.9547 514.25244 724.70154 517.3208 724.9547 520.25415 721.40497 523.1875 717.8552 527.1087 709.3101 528.9432 704.65643 530.77765 700.00275 530.90027 696.0101 531.26105 693.4827 531.6218 690.9554 531.4534 691.2364 531.1079 689.4924 530.7624 687.74835 530.11475 685.0345 529.1878 683.01855 528.26086 681.0026 527.1785 678.7044 525.5463 677.39667 523.9141 676.0889 521.98315 675.503 519.3946 675.172 516.806 674.841 512.50555 675.0129 510.0149 675.41064 507.52426 675.8084 505.50012 677.04016 504.45074 677.5587 503.40137 678.0773 503.7186 678.5218 503.7186 678.5218" fill="#4ED5CA" stroke="#40726C" fill-opacity="1,000000" stroke-opacity="1,000000" stroke-width="5" stroke-linecap="round" />
<path d="M548.1631 642.30786C546.7557 641.4306 545.86804 640.39026 543.9409 639.67615 542.0138 638.96204 538.74426 638.3291 536.6003 638.02325 534.4563 637.7174 533.2058 637.4571 531.07715 637.84106 528.9485 638.22504 526.25085 639.00616 523.8285 640.327 521.4061 641.6479 517.98035 644.1252 516.54297 645.7663 515.1056 647.4074 515.43787 648.28723 515.20404 650.1737 514.9702 652.0602 514.9186 654.69385 515.1399 657.08496 515.3612 659.4761 515.33875 662.15515 516.53186 664.5205 517.725 666.88586 519.8315 669.4876 522.29877 671.277 524.76605 673.06635 528.3255 674.42145 531.33545 675.2567 534.3454 676.092 537.4137 676.32874 540.35846 676.28864 543.3032 676.24854 546.6551 675.73035 549.00385 675.0159 551.3526 674.3015 552.5722 673.7038 554.45087 672.00226 556.3295 670.3007 559.2002 667.5501 560.2759 664.80664 561.35156 662.0632 561.18884 658.5891 560.9049 655.54156 560.621 652.494 559.73804 648.54956 558.57214 646.52155 557.40625 644.4935 555.68164 644.00287 553.9094 643.3736 552.1372 642.7443 550.2615 643.17883 547.939 642.7458 545.6166 642.31274 539.97485 640.77515 539.97485 640.77515" fill="#4ED5CA" stroke="#40726C" fill-opacity="1,000000" stroke-opacity="1,000000" stroke-width="5" stroke-linecap="round" />
<path d="M478.36572 629.95905C476.81192 630.09033 475.45993 629.6196 473.70435 630.3529 471.94876 631.0862 469.5416 633.2189 467.83228 634.3587 466.12296 635.49854 464.55484 636.2235 463.44843 637.1919 462.342 638.1603 461.78003 638.5914 461.19385 640.1688 460.60767 641.7463 460.10846 643.7028 459.9314 646.6567 459.75433 649.61053 458.40433 653.9338 460.13153 657.8919 461.85873 661.85004 467.10568 667.8455 470.29468 670.4054 473.48367 672.9653 476.88156 672.7786 479.2655 673.25104 481.64944 673.72345 482.1725 674.01544 484.59833 673.23987 487.02417 672.4643 490.584 670.40283 493.82062 668.5977 497.05722 666.7926 501.4469 664.4351 504.01794 662.4092 506.589 660.38324 508.15823 658.34625 509.24683 656.44214 510.33542 654.538 510.33237 653.0433 510.54947 650.9845 510.76657 648.9257 510.83295 646.37604 510.54947 644.0895 510.266 641.8029 510.0744 638.81616 508.8487 637.265 507.623 635.71387 505.41876 635.4606 503.19513 634.7825 500.9715 634.1044 497.87167 632.94196 495.50684 633.19635 493.142 633.45074 489.0061 636.30884 489.0061 636.30884" fill="#4ED5CA" stroke="#40726C" fill-opacity="1,000000" stroke-opacity="1,000000" stroke-width="5" stroke-linecap="round" />
<path d="M488.65588 738.5576C487.6268 738.2651 486.9745 737.7974 485.56866 737.68005 484.16284 737.5627 481.96384 737.60767 480.2209 737.8533 478.47794 738.0989 476.62372 738.59247 475.1109 739.15375 473.59808 739.715 472.3503 740.0023 471.14398 741.221 469.93765 742.4397 469.14734 743.46106 467.87286 746.4657 466.5984 749.47034 464.31717 756.26935 463.49716 759.24866 462.67715 762.22797 462.67834 762.25757 462.95276 764.34155 463.22717 766.42554 463.16544 769.27295 465.14362 771.75275 467.1218 774.23254 471.96494 777.81226 474.82178 779.2204 477.67862 780.62854 479.5864 780.0824 482.28473 780.2014 484.98306 780.32043 487.259 780.6037 491.01178 779.9346 494.76456 779.26544 500.34476 778.8741 504.8014 776.18665 509.25803 773.4992 514.96173 767.28033 517.7515 763.81 520.5413 760.33966 521.22705 758.39905 521.5401 755.36475 521.85315 752.33044 521.02924 749.16187 519.62976 745.604 518.2303 742.04614 515.4576 736.5238 513.1432 734.01764 510.82883 731.5115 508.5416 730.8941 505.74353 730.56696 502.94547 730.2398 498.5241 731.6426 496.35486 732.05475 494.1856 732.4669 492.72797 733.04004 492.72797 733.04004" fill="#4ED5CA" stroke="#40726C" fill-opacity="1,000000" stroke-opacity="1,000000" stroke-width="5" stroke-linecap="round" />
</svg>